<?xml version="1.0" standalone="no"?>
<svg version="1.0" xmlns="http://www.w3.org/2000/svg"
 width="416.000000pt" height="166.000000pt" viewBox="0 0 416.000000 166.000000"
 preserveAspectRatio="xMidYMid meet">
<g transform="translate(0.000000,166.000000) scale(0.100000,-0.100000)"
fill="#fff" stroke="none">
<path d="M2244 1541 c-121 -31 -188 -127 -215 -311 -9 -63 -9 -85 0 -88 25 -8
8 -17 -27 -14 -46 4 -73 -18 -52 -43 7 -8 23 -15 37 -15 22 0 24 -3 22 -41 -2
-26 1 -43 11 -49 10 -6 -2 -10 -35 -12 -42 -3 -50 -6 -50 -23 0 -13 10 -23 30
-30 28 -9 30 -13 27 -52 -2 -30 1 -43 10 -45 7 0 -7 -4 -32 -7 -37 -5 -46 -10
-48 -29 -3 -18 2 -23 27 -28 17 -4 31 -10 31 -14 0 -52 -33 -296 -41 -307 -15
-18 -54 -17 -69 2 -10 12 -10 39 4 138 20 152 20 266 1 341 -25 96 -18 95
-150 5 -125 -84 -123 -81 38 58 81 70 96 87 86 99 -10 12 -14 12 -28 1 -308
-261 -401 -341 -401 -349 0 -15 30 -21 45 -8 13 11 20 9 41 -11 52 -49 65 -91
67 -218 2 -132 18 -178 85 -246 60 -61 133 -90 222 -89 126 1 223 61 282 174
23 45 23 47 29 530 3 320 9 496 16 517 20 56 51 90 105 113 45 19 63 22 125
16 73 -6 87 0 57 24 -18 16 -202 23 -250 11z"/>
<path d="M289 1060 c-93 -16 -149 -65 -149 -129 0 -44 8 -57 41 -70 36 -13 73
7 77 42 4 31 -20 46 -43 27 -12 -10 -18 -10 -30 0 -20 16 -19 33 3 59 22 28
92 53 110 39 15 -13 17 -434 2 -490 -21 -73 -99 -103 -139 -52 -22 28 -41 25
-41 -6 0 -30 36 -43 104 -38 79 5 131 31 164 81 l27 40 3 237 c3 186 0 239
-10 247 -20 16 -68 22 -119 13z"/>
<path d="M2327 1040 c-48 -26 -97 -94 -97 -133 l0 -30 23 34 c30 45 78 52 102
15 53 -80 96 -410 64 -493 -5 -15 -22 -40 -35 -54 -37 -39 -13 -46 51 -14 124
60 182 206 156 391 -18 121 -48 208 -90 255 -32 36 -43 42 -86 45 -37 3 -60
-1 -88 -16z"/>
<path d="M3630 982 c0 -4 5 -13 11 -19 7 -7 9 -23 5 -37 -6 -24 -7 -25 -41
-10 -69 28 -152 11 -193 -41 -29 -37 -30 -117 -2 -162 11 -18 25 -33 31 -33 6
0 -1 -14 -15 -31 -31 -36 -33 -62 -7 -88 18 -18 18 -19 -10 -40 -39 -29 -39
-65 1 -86 40 -21 175 -22 222 -2 36 15 78 60 78 83 0 27 -23 62 -49 74 -14 7
-64 15 -110 20 -77 7 -108 20 -95 41 2 5 30 7 62 7 65 -1 113 19 138 57 24 37
29 106 10 142 -14 28 -14 32 0 44 45 37 41 89 -7 89 -16 0 -29 -4 -29 -8z
m-63 -112 c16 -31 17 -106 2 -149 -8 -23 -17 -31 -35 -31 -32 0 -44 27 -44
102 0 97 45 142 77 78z m36 -352 c41 -16 34 -48 -16 -67 -64 -25 -157 -4 -157
35 0 8 8 22 19 33 15 15 29 17 72 14 30 -2 66 -9 82 -15z"/>
<path d="M2733 915 c-62 -26 -67 -105 -7 -105 32 0 41 25 19 50 -23 25 -11 40
30 40 25 0 39 -6 49 -23 26 -39 10 -66 -59 -97 -34 -15 -72 -38 -84 -51 -28
-30 -28 -87 0 -123 26 -34 93 -37 132 -6 l26 21 11 -21 c18 -33 101 -26 120
10 8 15 6 17 -10 13 -19 -5 -20 0 -20 114 0 93 -3 123 -16 142 -34 47 -126 65
-191 36z"/>
<path d="M3018 914 c-32 -17 -35 -22 -10 -20 15 1 17 -12 19 -134 4 -182 4
-182 56 -178 l42 3 5 126 c4 106 8 130 24 148 41 45 64 16 73 -87 7 -99 -10
-192 -42 -219 l-26 -23 30 0 c48 0 107 60 127 128 20 67 15 182 -10 229 -27
54 -87 56 -145 7 -28 -23 -31 -24 -31 -7 0 43 -58 57 -112 27z"/>
<path d="M3785 919 c-31 -18 -45 -40 -45 -74 0 -34 15 -60 72 -122 41 -46 47
-72 22 -97 -19 -20 -41 -20 -74 -1 -33 19 -45 19 -29 -1 47 -56 164 -59 206
-5 7 9 13 35 13 58 0 38 -6 49 -61 107 -44 47 -60 71 -57 88 3 23 28 34 54 24
12 -5 12 -9 2 -26 -11 -17 -10 -22 1 -30 18 -11 51 5 51 24 0 8 -8 24 -18 36
-21 26 -104 38 -137 19z"/>
<path d="M570 899 c-73 -29 -83 -109 -14 -109 29 0 39 28 18 51 -21 24 -10 39
30 39 39 0 56 -15 56 -50 0 -33 -20 -51 -88 -80 -29 -13 -59 -32 -67 -44 -22
-31 -19 -102 5 -126 26 -26 92 -27 129 -1 27 19 27 19 39 0 17 -27 82 -26 107
1 16 18 16 20 2 20 -15 0 -17 14 -17 105 0 129 -14 169 -64 190 -40 17 -99 18
-136 4z"/>
<path d="M868 898 c-20 -7 -28 -17 -28 -33 0 -32 16 -40 32 -17 7 10 24 24 36
31 26 14 72 7 72 -10 0 -5 -36 -65 -80 -133 -44 -67 -80 -128 -80 -134 0 -28
45 -42 132 -42 106 0 138 10 138 44 0 37 -15 39 -48 6 -24 -24 -39 -30 -71
-30 -23 0 -41 4 -41 10 0 5 36 65 80 133 44 68 80 133 80 144 0 15 -10 24 -31
32 -39 13 -154 13 -191 -1z"/>
<path d="M1162 900 c-30 -13 -38 -38 -19 -57 14 -14 16 -13 27 6 6 12 23 26
38 32 29 11 72 4 72 -11 0 -5 -36 -64 -80 -131 -44 -66 -80 -127 -80 -134 0
-31 42 -45 132 -45 106 0 138 10 138 44 0 38 -18 41 -49 7 -23 -25 -37 -31
-70 -31 -24 0 -41 5 -41 12 0 6 36 67 80 135 44 68 80 130 80 137 0 28 -32 40
-118 43 -48 2 -97 -1 -110 -7z"/>
</g>
</svg>
